HIERARCHY
ROOT Hips
{
  OFFSET 13.6774 106.653 -34.4427
  CHANNELS 6 Xposition Yposition Zposition Zrotation Xrotation Yrotation
  JOINT ToSpine
  {
    OFFSET -2.69724 7.43032 -0.144315
    CHANNELS 3 Zrotation Xrotation Yrotation
    JOINT Spine
    {
      OFFSET -0.0310711 10.7595 1.96963
      CHANNELS 3 Zrotation Xrotation Yrotation
      JOINT Spine1
      {
        OFFSET 19.9056 3.91189 0.764692
        CHANNELS 3 Zrotation Xrotation Yrotation
        JOINT Neck
        {
          OFFSET 25.9749 7.03908 -0.130764
          CHANNELS 3 Zrotation Xrotation Yrotation
          JOINT Head
          {
            OFFSET 9.52751 0.295786 -0.907742
            CHANNELS 3 Zrotation Xrotation Yrotation
            End Site
            {
              OFFSET 16.4037 0.713936 2.7358
            }
          }
        }
        JOINT LeftShoulder
        {
          OFFSET 17.7449 4.33886 11.7777
          CHANNELS 3 Zrotation Xrotation Yrotation
          JOINT LeftArm
          {
            OFFSET 0.911315 1.27913 9.80584
            CHANNELS 3 Zrotation Xrotation Yrotation
            JOINT LeftForeArm
            {
              OFFSET 28.6126 1.18197 -3.53199
              CHANNELS 3 Zrotation Xrotation Yrotation
              JOINT LeftHand
              {
                OFFSET 27.5088 0.0218783 0.327423
                CHANNELS 3 Zrotation Xrotation Yrotation
                End Site
                {
                  OFFSET 18.6038 -0.000155887 0.382096
                }
              }
            }
          }
        }
        JOINT RightShoulder
        {
          OFFSET 17.1009 2.89543 -12.2328
          CHANNELS 3 Zrotation Xrotation Yrotation
          JOINT RightArm
          {
            OFFSET 1.4228 0.178766 -10.211
            CHANNELS 3 Zrotation Xrotation Yrotation
            JOINT RightForeArm
            {
              OFFSET 28.733 1.87905 2.64907
              CHANNELS 3 Zrotation Xrotation Yrotation
              JOINT RightHand
              {
                OFFSET 27.4588 0.290562 -0.101845
                CHANNELS 3 Zrotation Xrotation Yrotation
                End Site
                {
                  OFFSET 17.8396 -0.255518 -0.000602873
                }
              }
            }
          }
        }
      }
    }
  }
  JOINT LeftUpLeg
  {
    OFFSET -5.61296 -2.22332 -10.2353
    CHANNELS 3 Zrotation Xrotation Yrotation
    JOINT LeftLeg
    {
      OFFSET 2.56703 -44.7417 -7.93097
      CHANNELS 3 Zrotation Xrotation Yrotation
      JOINT LeftFoot
      {
        OFFSET 3.16933 -46.5642 -3.96578
        CHANNELS 3 Zrotation Xrotation Yrotation
        JOINT LeftToeBase
        {
          OFFSET 0.346054 -6.02161 12.8035
          CHANNELS 3 Zrotation Xrotation Yrotation
          End Site
          {
            OFFSET 0.134235 -1.35082 5.13018
          }
        }
      }
    }
  }
  JOINT RightUpLeg
  {
    OFFSET -5.7928 -1.72406 10.6446
    CHANNELS 3 Zrotation Xrotation Yrotation
    JOINT RightLeg
    {
      OFFSET -2.57161 -44.7178 -7.85259
      CHANNELS 3 Zrotation Xrotation Yrotation
      JOINT RightFoot
      {
        OFFSET -3.10148 -46.5936 -4.03391
        CHANNELS 3 Zrotation Xrotation Yrotation
        JOINT RightToeBase
        {
          OFFSET -0.0828122 -6.13587 12.8035
          CHANNELS 3 Zrotation Xrotation Yrotation
          End Site
          {
            OFFSET -0.131328 -1.35082 5.13018
          }
        }
      }
    }
  }
}
MOTION
Frames: 17
Frame Time: 0.03333333333333333
0.0000 93.1000 0.0000 73.2040 -5.9283 -1.0023 -71.0023 -0.1658 88.0047 93.8154 73.7194 -10.0600 2.1145 20.8618 6.8163 -112.2759 23.8102 157.7771 -171.6557 69.1081 -156.4259 -0.4324 -15.8193 -15.0539 -72.9558 48.8200 -138.7359 13.2140 -4.5056 -106.0605 0.0778 -1.0745 -0.2113 -2.3070 8.1561 30.0880 -134.9952 -19.1513 81.8442 17.1191 5.9177 107.9646 0.2396 -0.0266 -0.1833 -46.9680 7.0986 86.7028 -4.1396 44.9700 -10.7351 -0.7033 -15.3082 -2.1842 3.5681 -10.6668 10.7224 -46.8802 -19.4891 74.1107 1.9859 28.8916 -10.0391 -4.4268 2.3805 -0.0626 -0.9420 -8.1076 12.6505 
0.0000 93.1000 0.0000 73.1012 -6.0650 -1.2225 -71.0015 -0.2899 88.0048 92.8100 73.2162 -9.3521 2.2352 20.7098 6.8414 -111.3077 23.6949 156.7440 -171.4111 69.0741 -156.4690 -0.1313 -15.8438 -15.2007 -73.1908 49.3299 -138.5580 13.0981 -4.8016 -105.9020 0.1247 -1.1911 -0.2758 -2.0669 8.0318 30.2185 -134.9510 -19.1933 81.7654 17.5048 6.1121 108.1091 0.2811 0.1581 0.1054 -47.0510 7.2328 86.6312 -4.1616 45.2909 -11.0247 -0.8050 -14.8982 -2.2170 3.6129 -11.0864 11.5585 -46.8642 -19.5884 74.1952 1.8071 29.2577 -10.1642 -3.8181 1.9499 -0.1232 -0.8786 -7.4460 11.4746 
0.0000 93.1000 0.0000 74.1387 -6.1524 -0.0590 -71.0006 -0.1462 88.0019 90.8076 73.2127 -7.4342 2.7371 20.6849 7.0625 -111.1961 24.1591 155.8962 -169.3447 70.0116 -159.7524 -0.1341 -15.9406 -15.5898 -72.8120 49.1051 -138.7435 12.8559 -5.3036 -106.1741 0.1360 -1.0502 -0.3967 -2.0439 7.8996 30.7793 -133.9160 -18.8410 81.1040 16.9723 6.5388 108.7738 0.0696 -0.0439 -0.1732 -46.8546 7.6586 86.9371 -4.3738 45.0075 -11.0232 -0.8200 -15.4464 -2.2838 2.9053 -11.0795 10.7169 -46.9810 -19.9018 73.1599 1.9425 30.2754 -11.1806 -5.0827 2.0690 0.2020 -0.9419 -9.0661 13.7903 
0.0000 93.1000 0.0000 74.1611 -6.1417 0.0486 -71.0030 -0.0521 88.0010 88.8716 73.1687 -5.6956 2.5923 20.4602 7.0188 -112.1556 24.2961 156.0724 -169.4710 70.2178 -160.8403 -0.4323 -16.0893 -15.8081 -72.2296 48.9876 -138.7426 12.8887 -5.4359 -105.9677 -0.1051 -0.9504 -0.3149 -2.1419 7.8265 30.2056 -134.1193 -19.5960 81.1301 17.2264 5.9765 108.8992 -0.0179 -0.1260 -0.2969 -46.8924 8.0607 86.9880 -4.0966 45.2409 -10.7218 -0.7978 -15.9520 -2.0614 3.1266 -11.1915 10.7925 -46.8344 -19.8887 73.0399 1.9690 30.4147 -11.2199 -4.6217 1.8779 0.0197 -0.7477 -9.6415 13.6333 
0.0000 93.1000 0.0000 74.1526 -5.9208 0.1736 -71.0051 -0.3742 88.0003 88.7549 73.0852 -5.2331 2.4830 20.3897 6.8482 -112.5625 24.7894 155.7635 -170.5467 70.6524 -159.0118 -0.1632 -16.0041 -16.0777 -71.7812 48.9111 -138.6967 13.0387 -5.2232 -106.2405 -0.0787 -1.2626 -0.0428 -2.1137 7.7746 30.0519 -134.1774 -20.4664 81.0737 16.8361 5.9575 109.1841 0.2144 0.2261 -0.0080 -46.9243 8.3989 86.9137 -3.9977 45.1041 -10.7805 -0.8671 -15.0476 -1.9438 3.7022 -11.2164 11.4528 -46.9579 -19.0907 73.0798 2.2235 29.8996 -8.8562 -4.3454 2.1069 -0.3750 -0.4305 -8.6822 11.0331 
0.0000 93.1000 0.0000 74.0861 -5.9385 0.0459 -71.0050 -0.3552 87.9997 88.6969 73.0438 -5.0845 2.8354 20.1704 6.9343 -112.2865 24.9579 155.9469 -171.8303 71.1412 -158.5610 -0.1566 -16.0930 -16.1196 -71.0669 49.1812 -139.8310 12.9944 -4.7516 -106.0173 -0.2086 -1.3196 0.0570 -2.1162 7.7569 30.4000 -133.7540 -20.1728 80.9622 15.8296 5.9923 108.9800 0.1301 0.2244 0.0108 -46.7720 8.2185 87.2375 -3.9621 45.5310 -10.9922 -0.9307 -15.0682 -1.8588 3.8332 -11.3766 11.3044 -47.7430 -18.9804 72.9111 1.8257 29.8126 -9.0768 -4.3395 2.3326 -0.3729 -0.7171 -8.0302 10.7456 
0.0000 93.1000 0.0000 74.0978 -5.9468 -0.0212 -71.0067 -0.4204 87.9996 87.8907 72.9279 -5.0977 2.4662 19.9936 7.3056 -112.4262 25.0816 157.1196 -171.5396 71.0940 -158.3208 -0.6334 -16.0170 -16.3796 -71.2050 49.1589 -139.8183 13.9764 -4.9614 -106.2100 -0.3643 -1.3550 0.1694 -2.4529 8.0524 30.7943 -132.9284 -20.2549 80.9424 15.8415 5.6480 108.8046 0.1992 0.2765 -0.1329 -47.0776 8.1106 87.9490 -4.2019 45.3003 -11.2447 -1.1442 -15.0906 -1.5758 4.2073 -11.6368 11.1056 -47.0770 -19.0323 72.8134 2.3106 30.1727 -9.2775 -4.7830 2.1496 -0.4292 -0.2564 -10.3391 11.1407 
0.0000 93.1000 0.0000 73.9591 -6.2145 -0.0573 -71.0039 -0.5312 88.0003 87.7408 72.8543 -4.0650 2.7764 19.9412 6.6189 -113.3441 25.1260 157.2697 -171.5253 71.0604 -158.4075 -0.0251 -15.9899 -16.0698 -70.1184 49.1395 -139.8707 14.1223 -5.3318 -106.3703 -0.0519 -1.5091 0.0612 -2.0896 8.1211 30.2761 -133.2074 -20.0237 80.7873 15.4792 5.4939 109.0385 0.1856 0.4716 0.2655 -46.9432 7.8665 87.7584 -3.9658 45.1617 -11.0830 -1.2040 -15.2581 -1.8670 3.7723 -10.9567 10.8647 -47.8670 -19.3153 72.9471 2.1507 30.2279 -9.3205 -4.9331 1.8297 -0.2200 0.3339 -9.9211 11.3397 
0.0000 93.1000 0.0000 74.0756 -6.0740 0.0590 -71.0057 -0.3634 88.0010 87.7217 72.9207 -4.3771 2.8922 19.9449 6.3662 -113.2998 25.0440 157.0026 -170.6138 70.7831 -160.6655 -0.9729 -15.8790 -16.0558 -69.9701 48.5574 -140.7992 13.2019 -5.4199 -106.1700 -0.3379 -1.2320 0.1756 -2.5235 8.1621 30.1416 -133.8118 -19.9533 80.0948 15.2121 5.2388 109.0283 0.2789 0.1920 -0.0584 -47.1872 7.8246 86.9457 -3.7894 45.1845 -11.0573 -1.0813 -15.3580 -1.3568 3.0601 -10.8677 11.5370 -47.8168 -19.3144 73.2618 2.0136 30.1100 -9.3917 -5.4231 1.8188 -0.4592 -0.3020 -10.5577 11.7401 
0.0000 93.1000 0.0000 73.9850 -6.1541 -0.2597 -71.0036 -0.1711 87.9983 87.8922 73.0628 -4.6608 3.2102 20.0398 6.6748 -113.2746 25.1671 156.0916 -170.7777 71.0513 -159.6346 -0.2981 -15.8036 -16.1070 -70.0453 48.8109 -140.8808 13.1319 -4.9865 -106.1788 -0.2019 -1.2030 0.2012 -2.1388 8.0563 30.8357 -133.9477 -20.2008 79.8864 16.1604 4.8613 108.9826 0.2999 0.1639 0.0458 -47.1974 7.9467 87.8217 -3.8735 45.1959 -10.9978 -0.9132 -15.5702 -1.8177 3.5347 -11.5412 11.3579 -48.0815 -19.2975 73.0782 2.0946 29.8015 -9.2687 -5.4563 2.2544 -0.2060 -0.0785 -10.6845 10.8130 
0.0000 93.1000 0.0000 74.1607 -5.9822 -1.1739 -71.0039 -0.1501 88.0000 87.6318 73.0240 -4.5695 3.1034 20.2089 6.4847 -112.3808 25.0373 156.0526 -171.7383 70.9593 -158.1997 -0.3652 -16.0491 -16.1851 -69.9663 48.7852 -140.7365 13.2006 -5.2525 -106.1018 -0.1201 -1.1507 0.2854 -2.2037 8.0728 30.9166 -133.0865 -20.2774 79.8771 15.8829 5.0727 108.8899 0.3553 0.1921 0.1524 -47.6310 8.2122 88.2179 -3.9316 45.0918 -11.0942 -1.2473 -15.0744 -1.6755 3.8411 -11.0057 10.6504 -47.7062 -18.8421 73.0682 1.9861 30.3252 -9.0792 -5.5709 2.1581 -0.3199 -0.0482 -10.0874 9.8719 
0.0000 93.1000 0.0000 74.0550 -6.1421 -1.0832 -71.0001 0.4042 88.0021 86.8483 73.0060 -4.1010 3.1126 20.1211 6.8276 -112.4138 24.9684 156.1492 -171.4598 70.9794 -158.3470 -0.2896 -15.9257 -16.0204 -70.1777 49.0675 -140.7803 13.8587 -4.9756 -106.3412 -0.0718 -0.6467 -0.0893 -2.0460 7.8929 31.1116 -133.1346 -21.1747 79.8239 14.8564 5.2762 109.1090 -0.0724 -0.3048 -0.2103 -46.9412 8.1801 88.0554 -3.8669 45.3827 -11.0414 -1.1625 -15.1603 -1.8998 3.3621 -10.3746 10.3368 -47.9624 -18.8383 72.8257 1.7586 29.9444 -9.0997 -5.4550 2.5744 0.0027 0.4387 -11.5624 9.3097 
0.0000 93.1000 0.0000 74.1700 -6.2780 -1.1424 -71.0041 -0.0061 88.0005 85.5095 72.9760 -2.4318 3.2731 20.0241 6.9304 -113.3263 24.9262 156.2558 -171.4385 71.0235 -158.2770 -0.2556 -15.9318 -15.9645 -70.9723 49.1650 -140.7959 13.8919 -4.7138 -106.4328 0.0990 -1.0228 0.0851 -2.0801 7.8135 31.0584 -133.8772 -21.1195 80.0473 14.8833 5.0141 108.9105 -0.0072 -0.0224 0.0815 -47.3469 8.0056 87.8749 -4.1290 45.2851 -11.1124 -0.3606 -14.8557 -1.8925 3.2976 -11.6473 11.1331 -47.7296 -19.2996 72.8928 1.7580 30.0881 -9.1073 -6.2153 2.3193 0.0588 -0.1717 -11.0805 11.1227 
0.0000 93.1000 0.0000 74.0263 -6.0371 -1.2691 -71.0061 -0.1462 88.0017 83.8765 73.0963 -1.2593 3.6950 20.4677 6.6277 -113.3700 25.1445 156.2531 -170.3211 70.9667 -159.1998 -0.2336 -15.9803 -15.9917 -71.0301 48.9712 -140.6373 13.1536 -4.9578 -106.3248 0.1617 -1.1029 0.1124 -2.1275 8.1548 31.0817 -133.9353 -20.4182 80.8404 14.8189 5.1327 108.7651 -0.0570 0.0290 0.0148 -47.4515 8.0349 87.9281 -4.2566 45.2481 -11.2062 -0.8792 -15.1347 -1.8649 3.5122 -10.7442 10.9312 -47.2255 -19.3958 72.7970 2.0386 29.4356 -8.8908 -6.1222 2.1351 0.1072 -0.4873 -10.6606 11.3042 
0.0000 93.1000 0.0000 74.0394 -6.2317 -1.1579 -71.0075 -0.2938 88.0007 84.6652 73.0369 -1.1095 3.5772 20.2900 6.0565 -113.2957 24.9841 156.0634 -170.4406 70.9370 -159.3312 -0.1970 -15.8859 -15.5895 -71.1182 49.2076 -140.7564 12.9493 -5.0544 -106.3506 0.0682 -1.2035 0.1321 -2.0589 8.2653 30.9846 -134.0182 -20.8267 80.7937 15.3313 5.0147 108.9387 0.0154 0.1612 0.2136 -47.8863 8.3567 87.9483 -3.8814 45.1428 -10.7487 -1.0459 -15.1372 -1.8534 3.4344 -10.5823 11.0159 -47.6554 -19.1722 73.1446 1.8800 28.8065 -9.0896 -5.3060 2.1024 0.0526 -0.3993 -9.7975 10.1891 
0.0000 93.1000 0.0000 74.0661 -6.2685 -1.1849 -71.0056 0.3064 88.0017 85.7129 73.1316 -1.9156 3.3667 20.2065 6.7672 -113.2876 24.8616 157.1705 -170.6930 71.2593 -159.2890 -0.0379 -15.9015 -15.9561 -70.9538 48.9892 -139.5912 12.9392 -4.9504 -106.3040 -0.1354 -0.7399 -0.0228 -1.8477 8.2175 30.9756 -133.0577 -20.9858 80.9173 15.0236 5.1123 108.8448 -0.2659 -0.2340 -0.1363 -47.9772 7.9822 88.0244 -3.9197 44.3961 -10.9031 -1.0992 -14.9284 -2.0781 3.6388 -11.0712 11.4025 -47.7903 -19.0813 73.1655 1.7403 29.1561 -9.9582 -4.8488 2.3592 0.1398 -1.0254 -9.3562 11.5085 
0.0000 93.1000 0.0000 74.0874 -6.3004 -1.2966 -71.0041 0.5991 88.0024 85.7139 72.9655 -3.0686 3.0538 19.8346 6.6963 -113.2825 24.8295 157.1410 -170.7868 71.1732 -159.4292 0.0172 -15.9401 -15.9338 -70.9068 48.1995 -139.8047 12.9780 -4.3819 -106.1464 -0.2462 -0.4712 -0.1932 -1.7738 7.9456 30.9514 -132.9972 -20.4558 80.7834 15.9074 5.7746 108.9295 -0.3348 -0.4954 -0.2641 -48.2604 7.7672 87.9885 -4.2259 44.2826 -10.8750 -1.2347 -14.8216 -2.1801 3.5216 -11.3615 10.9914 -48.0158 -19.1007 73.7672 1.7809 29.0598 -9.0130 -3.8715 1.9396 0.1220 -1.0418 -7.7394 10.7855 
